<!DOCTYPE svg PUBLIC "-//W3C//DTD SVG 1.1//EN" "http://www.w3.org/Graphics/SVG/1.1/DTD/svg11.dtd">
<!-- Uploaded to: SVG Repo, www.svgrepo.com, Transformed by: SVG Repo Mixer Tools -->
<svg fill="#ffffff" version="1.1" id="Capa_1" xmlns="http://www.w3.org/2000/svg" xmlns:xlink="http://www.w3.org/1999/xlink" viewBox="0 0 191.618 191.618" xml:space="preserve" width="64px" height="64px">
<g id="SVGRepo_bgCarrier" stroke-width="0"/>
<g id="SVGRepo_tracerCarrier" stroke-linecap="round" stroke-linejoin="round"/>
<g id="SVGRepo_iconCarrier"> <g> <path d="M147.527,0H44.091c-8.042,0-14.584,6.546-14.584,14.593v162.442c0,8.041,6.542,14.583,14.584,14.583h103.436 c8.042,0,14.584-6.542,14.584-14.583V14.593C162.111,6.546,155.569,0,147.527,0z M44.507,53.666h102.604v75.006H44.507V53.666z M147.111,15v23.666H44.507V15H147.111z M44.507,176.618v-32.946h102.604v32.946H44.507z"/> <path d="M95.812,146.877c-7.311,0-13.258,5.953-13.258,13.27c0,7.307,5.947,13.251,13.258,13.251 c7.313,0,13.262-5.944,13.262-13.251C109.074,152.83,103.124,146.877,95.812,146.877z M95.812,165.397 c-2.918,0-5.258-2.347-5.258-5.251c0-2.91,2.34-5.27,5.258-5.27c2.914,0,5.262,2.359,5.262,5.27 C101.074,163.051,98.726,165.397,95.812,165.397z"/> <rect x="80.443" y="21.84" width="30.736" height="10"/> <path d="M124.16,112.448l-11.357-11.357c2.718-4.06,4.307-8.937,4.307-14.179c0-14.092-11.465-25.558-25.557-25.558 c-14.093,0-25.559,11.465-25.559,25.558c0,14.091,11.466,25.556,25.559,25.556c5.242,0,10.119-1.588,14.179-4.306l11.358,11.357 L124.16,112.448z M91.552,102.468c-8.579,0-15.559-6.978-15.559-15.556c0-8.579,6.979-15.558,15.559-15.558 c8.578,0,15.557,6.979,15.557,15.558C107.109,95.49,100.13,102.468,91.552,102.468z"/> </g> </g>
</svg>